<svg width="16" height="16" viewBox="0 0 16 16" fill="none" xmlns="http://www.w3.org/2000/svg">
<path d="M15.5139 6.2792C14.9121 5.29369 14.1529 4.41337 13.2666 3.6732L15.1332 1.80654C15.2547 1.6808 15.3219 1.5124 15.3204 1.3376C15.3188 1.1628 15.2487 0.995595 15.1251 0.871989C15.0015 0.748384 14.8343 0.678271 14.6595 0.676752C14.4847 0.675234 14.3163 0.74243 14.1906 0.863869L12.1606 2.89654C10.9022 2.14908 9.46353 1.75951 7.99991 1.76987C3.87258 1.76987 1.52058 4.5952 0.485912 6.2792C0.166264 6.79621 -0.00305176 7.39203 -0.00305176 7.99987C-0.00305176 8.60771 0.166264 9.20353 0.485912 9.72054C1.08775 10.7061 1.8469 11.5864 2.73325 12.3265L0.866579 14.1932C0.802905 14.2547 0.752117 14.3283 0.717178 14.4096C0.682239 14.4909 0.663848 14.5784 0.663078 14.6669C0.662309 14.7555 0.679177 14.8432 0.712698 14.9252C0.746218 15.0071 0.79572 15.0815 0.858315 15.1441C0.920911 15.2067 0.995345 15.2562 1.07728 15.2898C1.15921 15.3233 1.24699 15.3401 1.33551 15.3394C1.42403 15.3386 1.51151 15.3202 1.59285 15.2853C1.67418 15.2503 1.74775 15.1995 1.80925 15.1359L3.84391 13.1012C5.10076 13.8485 6.53769 14.2388 7.99991 14.2299C12.1272 14.2299 14.4792 11.4045 15.5139 9.72054C15.8336 9.20353 16.0029 8.60771 16.0029 7.99987C16.0029 7.39203 15.8336 6.79621 15.5139 6.2792ZM1.62191 9.02254C1.432 8.71523 1.33141 8.36112 1.33141 7.99987C1.33141 7.63862 1.432 7.28451 1.62191 6.9772C2.51125 5.5332 4.52125 3.1032 7.99991 3.1032C9.10676 3.097 10.1981 3.36376 11.1772 3.87987L9.83525 5.22187C9.1952 4.79694 8.42785 4.60653 7.6634 4.68297C6.89895 4.7594 6.18449 5.09796 5.64125 5.6412C5.098 6.18445 4.75944 6.89891 4.68301 7.66336C4.60658 8.42781 4.79698 9.19516 5.22191 9.8352L3.68191 11.3752C2.86531 10.715 2.16847 9.91917 1.62191 9.02254ZM9.99991 7.99987C9.99991 8.5303 9.7892 9.03901 9.41413 9.41408C9.03905 9.78916 8.53035 9.99987 7.99991 9.99987C7.70292 9.99872 7.41004 9.93034 7.14325 9.79987L9.79991 7.1432C9.93039 7.41 9.99876 7.70288 9.99991 7.99987ZM5.99991 7.99987C5.99991 7.46944 6.21063 6.96073 6.5857 6.58565C6.96077 6.21058 7.46948 5.99987 7.99991 5.99987C8.2969 6.00102 8.58978 6.06939 8.85658 6.19987L6.19991 8.85653C6.06944 8.58974 6.00106 8.29686 5.99991 7.99987ZM14.3779 9.02254C13.4886 10.4665 11.4786 12.8965 7.99991 12.8965C6.89306 12.9027 5.80175 12.636 4.82258 12.1199L6.16458 10.7779C6.80462 11.2028 7.57197 11.3932 8.33642 11.3168C9.10087 11.2403 9.81534 10.9018 10.3586 10.3585C10.9018 9.81529 11.2404 9.10083 11.3168 8.33638C11.3932 7.57193 11.2028 6.80458 10.7779 6.16454L12.3179 4.62454C13.1345 5.28472 13.8314 6.08057 14.3779 6.9772C14.5678 7.28451 14.6684 7.63862 14.6684 7.99987C14.6684 8.36112 14.5678 8.71523 14.3779 9.02254Z" fill="#333333"/>
</svg>
